HIERARCHY
ROOT SimulationBone
{
	OFFSET 0.000000 0.000000 0.000000
	CHANNELS 6 Xposition Yposition Zposition Zrotation Yrotation Xrotation 
	JOINT Hips
	{
		OFFSET 0.000000 0.000000 0.000000
		CHANNELS 6 Xposition Yposition Zposition Zrotation Yrotation Xrotation 
		JOINT RightUpLeg
		{
			OFFSET 0.103462 1.857831 10.548496
			CHANNELS 3 Zrotation Yrotation Xrotation
			JOINT RightLeg
			{
				OFFSET 43.500000 -0.000038 -0.000010
				CHANNELS 3 Zrotation Yrotation Xrotation
				JOINT RightFoot
				{
					OFFSET 42.372192 0.000011 0.000010
					CHANNELS 3 Zrotation Yrotation Xrotation
					JOINT RightToe
					{
						OFFSET 17.299999 0.000001 -0.000001
						CHANNELS 3 Zrotation Yrotation Xrotation
						End Site
						{
							OFFSET 0.000000 0.000000 0.000000
						}
					}
				}
			}
		}
		JOINT LeftUpLeg
		{
			OFFSET 0.103456 1.857825 -10.548502
			CHANNELS 3 Zrotation Yrotation Xrotation
			JOINT LeftLeg
			{
				OFFSET 43.500038 -0.000023 0.000011
				CHANNELS 3 Zrotation Yrotation Xrotation
				JOINT LeftFoot
				{
					OFFSET 42.372261 -0.000008 0.000011
					CHANNELS 3 Zrotation Yrotation Xrotation
					JOINT LeftToe
					{
						OFFSET 17.299994 -0.000004 0.000002
						CHANNELS 3 Zrotation Yrotation Xrotation
						End Site
						{
							OFFSET 0.000000 0.000000 0.000000
						}
					}
				}
			}
		}
		JOINT Spine
		{
			OFFSET 6.901965 -2.603729 -0.000002
			CHANNELS 3 Zrotation Yrotation Xrotation
			JOINT Spine1
			{
				OFFSET 12.588101 -0.000004 0.000003
				CHANNELS 3 Zrotation Yrotation Xrotation
				JOINT Spine2
				{
					OFFSET 12.343205 0.000006 0.000001
					CHANNELS 3 Zrotation Yrotation Xrotation
					JOINT Neck
					{
						OFFSET 25.832897 -0.000008 -0.000001
						CHANNELS 3 Zrotation Yrotation Xrotation
						JOINT Head
						{
							OFFSET 11.766601 0.000009 -0.000008
							CHANNELS 3 Zrotation Yrotation Xrotation
							End Site
							{
								OFFSET 0.000000 0.000000 0.000000
							}
						}
					}
					JOINT RightShoulder
					{
						OFFSET 19.745893 -1.480370 6.000097
						CHANNELS 3 Zrotation Yrotation Xrotation
						JOINT RightArm
						{
							OFFSET 11.284136 -0.000006 -0.000021
							CHANNELS 3 Zrotation Yrotation Xrotation
							JOINT RightForeArm
							{
								OFFSET 33.000042 0.000005 0.000030
								CHANNELS 3 Zrotation Yrotation Xrotation
								JOINT RightHand
								{
									OFFSET 25.200008 0.000013 0.000010
									CHANNELS 3 Zrotation Yrotation Xrotation
									End Site
									{
										OFFSET 0.000000 0.000000 0.000000
									}
								}
							}
						}
					}
					JOINT LeftShoulder
					{
						OFFSET 19.746088 -1.480379 -6.000076
						CHANNELS 3 Zrotation Yrotation Xrotation
						JOINT LeftArm
						{
							OFFSET 11.284133 -0.000016 -0.000013
							CHANNELS 3 Zrotation Yrotation Xrotation
							JOINT LeftForeArm
							{
								OFFSET 33.000095 0.000019 0.000001
								CHANNELS 3 Zrotation Yrotation Xrotation
								JOINT LeftHand
								{
									OFFSET 25.199785 0.000138 0.000422
									CHANNELS 3 Zrotation Yrotation Xrotation
									End Site
									{
										OFFSET 0.000000 0.000000 0.000000
									}
								}
							}
						}
					}
				}
			}
		}
	}
}
MOTION
Frames: 5
Frame Time: 0.033333
111.091678 0.000000 377.949714 180.000000 -12.100459 180.000000 1.032271 83.985107 -0.012673 101.828548 0.039599 -178.996380 175.044006 -0.947402 -175.604382 -51.577794 -2.388596 -3.127019 97.936689 1.981871 -1.995463 21.454560 0.003107 0.000017 152.733808 12.874603 177.824371 -67.627718 0.271337 7.776267 73.647526 -2.824905 9.130023 21.454543 -0.003092 -0.000002 10.386171 -0.620256 -0.302768 10.763608 -1.209562 -0.661967 10.445442 -1.213675 -0.654662 -13.638424 1.707938 0.127435 -24.078042 -6.933509 3.702249 -166.691095 -69.891427 -15.077789 -14.306217 46.141322 -0.482180 -117.553908 1.994140 3.420308 -15.526429 -10.494541 34.026483 -165.478135 76.600811 16.329878 17.565390 -56.782320 -28.336541 -126.230106 -0.449761 -3.822159 -3.707707 -2.476647 -27.914879 
114.885159 0.000000 380.113141 180.000000 -11.119351 180.000000 1.469977 86.682289 -0.203907 100.429110 -0.044454 -179.797600 174.446365 1.367906 -176.103642 -45.329616 -2.744129 -4.695797 90.452755 3.244674 -0.213660 21.454557 0.003111 0.000018 156.656058 10.087904 178.944468 -66.549053 0.825141 9.649129 73.742247 -4.180897 9.181666 21.454551 -0.003094 0.000000 9.751498 -0.343824 -0.218865 9.491665 -0.668475 -0.465186 9.173544 -0.671409 -0.461149 -15.299419 3.165578 0.784308 -22.598150 -8.172093 5.271904 -163.426483 -69.140202 -18.453395 -4.792708 48.652773 7.758554 -119.675201 2.552036 3.469631 -12.585082 -11.473451 29.328870 -163.815503 77.225049 18.022182 18.799824 -54.361462 -32.346007 -125.998904 -0.405618 -3.816343 -4.592797 -2.586548 -28.114208 
118.626650 0.000000 382.255926 180.000000 -10.026534 180.000000 1.602784 89.156288 -0.514383 98.327497 -0.151902 179.477253 172.735744 3.027602 -176.921625 -39.189464 -3.488269 -5.707048 81.676679 4.428798 1.542846 21.454560 0.003111 0.000018 159.755570 7.183196 179.106917 -63.499012 0.862400 8.738369 73.564020 -3.448486 9.365032 21.454551 -0.003093 -0.000001 9.019646 -0.056766 -0.127201 8.026574 -0.104534 -0.258026 7.708464 -0.106227 -0.257396 -16.959812 5.312148 1.351590 -20.932173 -9.764925 7.102567 -160.481510 -69.024587 -21.496801 4.754767 50.895390 15.980274 -120.422300 2.758186 3.486038 -11.156433 -9.523013 27.178392 -161.692188 77.478510 20.184821 18.969199 -52.251866 -34.807501 -124.798498 -0.342404 -3.774382 -5.109224 -3.204591 -29.918773 
122.280703 0.000000 384.377311 180.000000 -8.820788 180.000000 1.580440 90.914131 -0.752827 96.328201 -0.360716 178.922120 170.123770 4.019898 -178.946407 -35.474087 -3.464747 -5.070355 75.400548 3.435600 -0.979053 21.454558 0.003108 0.000018 162.286510 4.790207 177.584987 -59.601966 1.555284 4.049246 74.020761 -0.310181 8.687278 21.454555 -0.003092 0.000000 8.443890 0.190194 -0.027075 6.874876 0.381703 -0.042836 6.556754 0.381300 -0.045146 -19.062040 8.231425 1.414808 -19.690493 -12.390661 9.196826 -158.583387 -69.152250 -23.455003 12.024098 52.098897 22.301703 -119.894204 2.511467 3.481381 -10.983409 -7.165119 29.017096 -159.438718 77.425508 22.483002 17.676835 -51.091280 -35.000191 -123.391397 -0.147296 -3.732852 -4.858960 -4.068272 -33.422595 
125.832389 0.000000 386.479331 180.000000 -7.476612 180.000000 1.406818 91.675087 -0.904290 95.014163 -0.800243 178.389194 166.144188 4.845093 179.297315 -37.553623 -2.241923 -3.652900 73.159905 0.487342 -7.213755 21.454551 0.003110 0.000016 164.470286 2.913803 174.366342 -55.965720 2.581094 -1.919786 73.857595 3.846505 8.195178 21.454557 -0.003091 0.000001 8.134772 0.382278 0.073537 6.257368 0.760084 0.167555 5.939246 0.760946 0.162957 -20.610137 10.990569 1.440829 -18.968043 -14.715511 11.152441 -157.837913 -69.974291 -24.209411 17.444126 53.536689 26.259760 -119.626693 2.322087 3.483409 -10.087788 -3.923365 31.487510 -158.802281 76.908360 23.140298 14.363099 -50.131222 -32.605851 -122.218299 0.047544 -3.699913 -3.063034 -5.011557 -37.107427 
